<svg xmlns="http://www.w3.org/2000/svg"  viewBox="0 0 100 100" width="200px" height="200px"><path fill="#c7ede6" d="M87.215,56.71C88.35,54.555,89,52.105,89,49.5c0-6.621-4.159-12.257-10.001-14.478	C78.999,35.015,79,35.008,79,35c0-11.598-9.402-21-21-21c-9.784,0-17.981,6.701-20.313,15.757C36.211,29.272,34.638,29,33,29	c-7.692,0-14.023,5.793-14.89,13.252C12.906,43.353,9,47.969,9,53.5C9,59.851,14.149,65,20.5,65c0.177,0,0.352-0.012,0.526-0.022	C21.022,65.153,21,65.324,21,65.5C21,76.822,30.178,86,41.5,86c6.437,0,12.175-2.972,15.934-7.614C59.612,80.611,62.64,82,66,82	c4.65,0,8.674-2.65,10.666-6.518C77.718,75.817,78.837,76,80,76c6.075,0,11-4.925,11-11C91,61.689,89.53,58.727,87.215,56.71z"/><path fill="#fdfcef" d="M32.5,39.5V40h3v-0.5c0,0,4.242,0,5.5,0c2.485,0,4.5-2.015,4.5-4.5c0-2.333-1.782-4.229-4.055-4.455 C41.467,30.364,41.5,30.187,41.5,30c0-2.485-2.015-4.5-4.5-4.5c-1.438,0-2.703,0.686-3.527,1.736 C33.333,24.6,31.171,22.5,28.5,22.5c-2.761,0-5,2.239-5,5c0,0.446,0.077,0.87,0.187,1.282C23.045,28.005,22.086,27.5,21,27.5 c-1.781,0-3.234,1.335-3.455,3.055C17.364,30.533,17.187,30.5,17,30.5c-2.485,0-4.5,2.015-4.5,4.5s2.015,4.5,4.5,4.5s9.5,0,9.5,0 H32.5z"/><path fill="#472b29" d="M28.5,22c-3.033,0-5.5,2.467-5.5,5.5c0,0.016,0,0.031,0,0.047C22.398,27.192,21.71,27,21,27 c-1.831,0-3.411,1.261-3.858,3.005C17.095,30.002,17.048,30,17,30c-2.757,0-5,2.243-5,5s2.243,5,5,5h15.5 c0.276,0,0.5-0.224,0.5-0.5S32.776,39,32.5,39H17c-2.206,0-4-1.794-4-4s1.794-4,4-4c0.117,0,0.23,0.017,0.343,0.032l0.141,0.019 c0.021,0.003,0.041,0.004,0.062,0.004c0.246,0,0.462-0.185,0.495-0.437C18.232,29.125,19.504,28,21,28 c0.885,0,1.723,0.401,2.301,1.1c0.098,0.118,0.241,0.182,0.386,0.182c0.078,0,0.156-0.018,0.228-0.056 c0.209-0.107,0.314-0.346,0.254-0.573C24.054,28.218,24,27.852,24,27.5c0-2.481,2.019-4.5,4.5-4.5c2.381,0,4.347,1.872,4.474,4.263 c0.011,0.208,0.15,0.387,0.349,0.45c0.05,0.016,0.101,0.024,0.152,0.024c0.15,0,0.296-0.069,0.392-0.192 C34.638,26.563,35.779,26,37,26c2.206,0,4,1.794,4,4c0,0.117-0.017,0.23-0.032,0.343l-0.019,0.141 c-0.016,0.134,0.022,0.268,0.106,0.373s0.207,0.172,0.34,0.185C43.451,31.247,45,32.949,45,35c0,2.206-1.794,4-4,4h-5.5 c-0.276,0-0.5,0.224-0.5,0.5s0.224,0.5,0.5,0.5H41c2.757,0,5-2.243,5-5c0-2.397-1.689-4.413-4.003-4.877 C41.999,30.082,42,30.041,42,30c0-2.757-2.243-5-5-5c-1.176,0-2.293,0.416-3.183,1.164C33.219,23.76,31.055,22,28.5,22L28.5,22z"/><path fill="#472b29" d="M27,29c-1.403,0-2.609,0.999-2.913,2.341C23.72,31.119,23.301,31,22.875,31 c-1.202,0-2.198,0.897-2.353,2.068C20.319,33.022,20.126,33,19.937,33c-1.529,0-2.811,1.2-2.918,2.732 C17.01,35.87,17.114,35.99,17.251,36c0.006,0,0.012,0,0.018,0c0.13,0,0.24-0.101,0.249-0.232c0.089-1.271,1.151-2.268,2.419-2.268 c0.229,0,0.47,0.042,0.738,0.127c0.022,0.007,0.045,0.01,0.067,0.01c0.055,0,0.11-0.02,0.156-0.054 C20.962,33.537,21,33.455,21,33.375c0-1.034,0.841-1.875,1.875-1.875c0.447,0,0.885,0.168,1.231,0.473 c0.047,0.041,0.106,0.063,0.165,0.063c0.032,0,0.063-0.006,0.093-0.019c0.088-0.035,0.148-0.117,0.155-0.212 C24.623,30.512,25.712,29.5,27,29.5c0.208,0,0.425,0.034,0.682,0.107c0.023,0.007,0.047,0.01,0.07,0.01 c0.109,0,0.207-0.073,0.239-0.182c0.038-0.133-0.039-0.271-0.172-0.309C27.517,29.04,27.256,29,27,29L27,29z"/><path fill="#472b29" d="M40.883,30.5c-1.326,0-2.508,0.897-2.874,2.182c-0.038,0.133,0.039,0.271,0.172,0.309 C38.205,32.997,38.228,33,38.25,33c0.109,0,0.209-0.072,0.24-0.182C38.795,31.748,39.779,31,40.883,31 c0.117,0,0.23,0.014,0.342,0.029c0.012,0.002,0.023,0.003,0.035,0.003c0.121,0,0.229-0.092,0.246-0.217 c0.019-0.137-0.077-0.263-0.214-0.281C41.158,30.516,41.022,30.5,40.883,30.5L40.883,30.5z"/><path fill="#1e65d6" d="M34.417,73.3c-2.601,0-4.716-2.116-4.716-4.717V35.417c0-2.601,2.116-4.717,4.716-4.717h33.167	c2.601,0,4.717,2.116,4.717,4.717v33.166c0,2.601-2.116,4.717-4.717,4.717H34.417z"/><path fill="#88bbed" d="M72.3,64.58v4c0,2.6-2.11,4.72-4.72,4.72H34.42c-2.6,0-4.72-2.12-4.72-4.72v-4.3	c6.02-1.76,13.15-2.78,20.8-2.78C58.57,61.5,66.07,62.64,72.3,64.58z"/><path fill="#1e65d6" d="M72.3,67.68v0.9c0,2.6-2.11,4.72-4.72,4.72H34.42c-2.6,0-4.72-2.12-4.72-4.72v-0.9	c4.94-1.94,12.65-3.18,21.3-3.18C59.66,64.5,67.36,65.74,72.3,67.68z"/><path fill="#4792dd" d="M72.3,58.31v6.27c-6.23-1.94-13.73-3.08-21.8-3.08c-7.65,0-14.78,1.02-20.8,2.78v-6.24	c6.16-1.63,13.2-2.54,20.8-2.54C58.51,55.5,65.92,56.51,72.3,58.31z"/><path fill="#2d80d3" d="M72.3,45.93v12.38c-6.38-1.8-13.79-2.81-21.8-2.81c-7.6,0-14.64,0.91-20.8,2.54V45.7	c6.36-1.43,13.35-2.2,20.8-2.2C58.35,43.5,65.68,44.35,72.3,45.93z"/><path fill="#1e65d6" d="M72.3,35.42v10.51c-6.62-1.58-13.95-2.43-21.8-2.43c-7.45,0-14.44,0.77-20.8,2.2V35.42	c0-2.6,2.12-4.72,4.72-4.72h33.16C70.18,30.7,72.3,32.82,72.3,35.42z"/><path fill="#2d80d3" d="M71.7,70.88c-0.8,1.44-2.35,2.42-4.12,2.42H34.42c-1.77,0-3.31-0.98-4.12-2.42	C35.96,69.08,43.16,68,51,68S66.04,69.08,71.7,70.88z"/><path fill="#88bbed" d="M64,73.4c10-6.4-3.4-8-3.4-8l-2.1,0.7c5,0,6,2.4,4,3.4c-1.265,0.632-7,2-8,4L64,73.4z"/><path fill="#472b29" d="M64.135,73.611l-0.27-0.422c2.632-1.684,3.827-3.153,3.554-4.367	c-0.551-2.446-6.788-3.267-6.851-3.274l0.063-0.496c0.271,0.034,6.648,0.875,7.276,3.66C68.231,70.153,66.962,71.801,64.135,73.611z"/><path fill="#472b29" d="M54.724,73.611l-0.447-0.223c0.787-1.574,4.176-2.726,6.419-3.487	c0.741-0.251,1.38-0.469,1.692-0.625c0.612-0.306,0.913-0.759,0.806-1.212c-0.201-0.854-1.73-1.715-4.693-1.715v-0.5	c3.458,0,4.952,1.131,5.181,2.1c0.164,0.694-0.235,1.357-1.069,1.774c-0.343,0.172-0.966,0.384-1.755,0.651	C58.822,71.065,55.419,72.222,54.724,73.611z"/><path fill="#88bbed" d="M48.5,73.5h3c1-2,8-4,8-4S48.5,71.5,48.5,73.5z"/><path fill="#472b29" d="M67.583,31.4c2.215,0,4.017,1.802,4.017,4.017v33.167c0,2.215-1.802,4.017-4.017,4.017H34.417	c-2.215,0-4.017-1.802-4.017-4.017V35.417c0-2.215,1.802-4.017,4.017-4.017H67.583 M67.583,30H34.417C31.425,30,29,32.425,29,35.417	v33.167C29,71.575,31.425,74,34.417,74h33.167C70.575,74,73,71.575,73,68.583V35.417C73,32.425,70.575,30,67.583,30L67.583,30z"/><path fill="#472b29" d="M51.724,73.611l-0.447-0.223c0.515-1.03,2.456-2.034,4.317-2.795c-3.53,0.87-6.844,2.012-6.844,2.906	h-0.5c0-2.103,9.334-3.905,11.205-4.246c0.14-0.026,0.258,0.06,0.288,0.189s-0.046,0.261-0.175,0.297	C57.651,70.288,52.503,72.053,51.724,73.611z"/><path fill="#fff" d="M16.5,54h-10C6.224,54,6,53.776,6,53.5S6.224,53,6.5,53h10c0.276,0,0.5,0.224,0.5,0.5 S16.777,54,16.5,54z"/><path fill="#fff" d="M19.5,54h-1c-0.276,0-0.5-0.224-0.5-0.5s0.224-0.5,0.5-0.5h1c0.276,0,0.5,0.224,0.5,0.5 S19.777,54,19.5,54z"/><path fill="#fff" d="M24.491,56H15.5c-0.276,0-0.5-0.224-0.5-0.5s0.224-0.5,0.5-0.5h8.991c0.276,0,0.5,0.224,0.5,0.5 S24.767,56,24.491,56z"/><path fill="#fff" d="M13.5,56h-1c-0.276,0-0.5-0.224-0.5-0.5s0.224-0.5,0.5-0.5h1c0.276,0,0.5,0.224,0.5,0.5 S13.777,56,13.5,56z"/><path fill="#fff" d="M10.5,56h-2C8.224,56,8,55.776,8,55.5S8.224,55,8.5,55h2c0.276,0,0.5,0.224,0.5,0.5 S10.777,56,10.5,56z"/><path fill="#fff" d="M16.5,58h-2c-0.276,0-0.5-0.224-0.5-0.5s0.224-0.5,0.5-0.5h2c0.276,0,0.5,0.224,0.5,0.5 S16.776,58,16.5,58z"/><path fill="#fff" d="M19.5,49c-0.177,0-0.823,0-1,0c-0.276,0-0.5,0.224-0.5,0.5s0.224,0.5,0.5,0.5c0.177,0,0.823,0,1,0 c0.276,0,0.5-0.224,0.5-0.5S19.776,49,19.5,49z"/><path fill="#fff" d="M19.5,51c-0.177,0-4.823,0-5,0c-0.276,0-0.5,0.224-0.5,0.5s0.224,0.5,0.5,0.5c0.177,0,4.823,0,5,0 c0.276,0,0.5-0.224,0.5-0.5S19.776,51,19.5,51z"/><path fill="#fff" d="M24.5,53c-0.177,0-2.823,0-3,0c-0.276,0-0.5,0.224-0.5,0.5s0.224,0.5,0.5,0.5c0.177,0,2.823,0,3,0 c0.276,0,0.5-0.224,0.5-0.5S24.776,53,24.5,53z"/><path fill="#fff" d="M68.5,21h-10c-0.276,0-0.5-0.224-0.5-0.5s0.224-0.5,0.5-0.5h10c0.276,0,0.5,0.224,0.5,0.5 S68.776,21,68.5,21z"/><path fill="#fff" d="M72.5,21h-2c-0.276,0-0.5-0.224-0.5-0.5s0.224-0.5,0.5-0.5h2c0.276,0,0.5,0.224,0.5,0.5 S72.776,21,72.5,21z"/><path fill="#fff" d="M77.5,23h-10c-0.276,0-0.5-0.224-0.5-0.5s0.224-0.5,0.5-0.5h10c0.276,0,0.5,0.224,0.5,0.5 S77.777,23,77.5,23z"/><path fill="#fff" d="M65.5,23h-1c-0.276,0-0.5-0.224-0.5-0.5s0.224-0.5,0.5-0.5h1c0.276,0,0.5,0.224,0.5,0.5 S65.776,23,65.5,23z"/><path fill="#fff" d="M62.47,23H60.5c-0.276,0-0.5-0.224-0.5-0.5s0.224-0.5,0.5-0.5h1.97c0.276,0,0.5,0.224,0.5,0.5 S62.746,23,62.47,23z"/><path fill="#fff" d="M71.5,19h-5c-0.276,0-0.5-0.224-0.5-0.5s0.224-0.5,0.5-0.5h5c0.276,0,0.5,0.224,0.5,0.5 S71.777,19,71.5,19z"/><path fill="#fff" d="M68.5,25h-2c-0.276,0-0.5-0.224-0.5-0.5s0.224-0.5,0.5-0.5h2c0.276,0,0.5,0.224,0.5,0.5 S68.776,25,68.5,25z"/><path fill="#fdfcef" d="M87.5,62.5c0,0,1.567,0,3.5,0s3.5-1.567,3.5-3.5c0-1.781-1.335-3.234-3.055-3.455 C91.473,55.366,91.5,55.187,91.5,55c0-1.933-1.567-3.5-3.5-3.5c-1.032,0-1.95,0.455-2.59,1.165 c-0.384-1.808-1.987-3.165-3.91-3.165c-2.209,0-4,1.791-4,4c0,0.191,0.03,0.374,0.056,0.558C77.128,53.714,76.592,53.5,76,53.5 c-1.228,0-2.245,0.887-2.455,2.055C73.366,55.527,73.187,55.5,73,55.5c-1.933,0-3.5,1.567-3.5,3.5s1.567,3.5,3.5,3.5s7.5,0,7.5,0 V63h7V62.5z"/><path fill="#472b29" d="M89.25,58C89.112,58,89,57.888,89,57.75c0-1.223,0.995-2.218,2.218-2.218 c0.034,0.009,0.737-0.001,1.244,0.136c0.133,0.036,0.212,0.173,0.176,0.306c-0.036,0.134-0.173,0.213-0.306,0.176 c-0.444-0.12-1.1-0.12-1.113-0.118c-0.948,0-1.719,0.771-1.719,1.718C89.5,57.888,89.388,58,89.25,58z"/><circle cx="82.5" cy="62.5" r=".5" fill="#472b29"/><path fill="#472b29" d="M91,63h-3.5c-0.276,0-0.5-0.224-0.5-0.5s0.224-0.5,0.5-0.5H91c1.654,0,3-1.346,3-3 c0-1.496-1.125-2.768-2.618-2.959c-0.134-0.018-0.255-0.088-0.336-0.196s-0.115-0.244-0.094-0.377C90.975,55.314,91,55.16,91,55 c0-1.654-1.346-3-3-3c-0.85,0-1.638,0.355-2.219,1c-0.125,0.139-0.321,0.198-0.5,0.148c-0.182-0.049-0.321-0.195-0.36-0.379 C84.58,51.165,83.141,50,81.5,50c-1.93,0-3.5,1.57-3.5,3.5c0,0.143,0.021,0.28,0.041,0.418c0.029,0.203-0.063,0.438-0.242,0.54 c-0.179,0.102-0.396,0.118-0.556-0.01C76.878,54.155,76.449,54,76,54c-0.966,0-1.792,0.691-1.963,1.644 c-0.048,0.267-0.296,0.446-0.569,0.405C73.314,56.025,73.16,56,73,56c-1.654,0-3,1.346-3,3s1.346,3,3,3h7.5 c0.276,0,0.5,0.224,0.5,0.5S80.776,63,80.5,63H73c-2.206,0-4-1.794-4-4s1.794-4,4-4c0.059,0,0.116,0.002,0.174,0.006 C73.588,53.82,74.711,53,76,53c0.349,0,0.689,0.061,1.011,0.18C77.176,50.847,79.126,49,81.5,49c1.831,0,3.466,1.127,4.153,2.774 C86.333,51.276,87.155,51,88,51c2.206,0,4,1.794,4,4c0,0.048-0.001,0.095-0.004,0.142C93.739,55.59,95,57.169,95,59 C95,61.206,93.206,63,91,63z"/><path fill="#472b29" d="M85.5,62c-0.159,0-0.841,0-1,0c-0.276,0-0.5,0.224-0.5,0.5s0.224,0.5,0.5,0.5c0.159,0,0.841,0,1,0 c0.276,0,0.5-0.224,0.5-0.5S85.776,62,85.5,62z"/><path fill="#472b29" d="M72.118,68.146C67.017,66.146,59.319,65,51,65c-8.316,0-16.013,1.146-21.117,3.145l-0.364-0.932	C34.734,65.171,42.563,64,51,64c8.439,0,16.27,1.172,21.483,3.214L72.118,68.146z"/><circle cx="51" cy="52" r="16" fill="#ededeb"/><path fill="#f45834" d="M67,52H55c0-2.21-1.79-4-4-4s-4,1.79-4,4H35c0-8.84,7.16-16,16-16S67,43.16,67,52z"/><path fill="#fc7c59" d="M66.29,47.26c-2.86,1.22-7.15,2.09-12.09,2.35C53.48,48.63,52.31,48,51,48s-2.48,0.63-3.2,1.61	c-4.94-0.26-9.23-1.13-12.09-2.35C37.73,40.74,43.81,36,51,36S64.27,40.74,66.29,47.26z"/><path fill="#472b29" d="M63.334,48.514c-0.11,0-0.211-0.073-0.241-0.185c-0.036-0.133,0.043-0.271,0.176-0.306	c1.273-0.344,2.396-0.739,3.334-1.174c0.125-0.057,0.274-0.003,0.332,0.122c0.059,0.125,0.004,0.274-0.121,0.332	c-0.965,0.447-2.113,0.851-3.414,1.202C63.377,48.511,63.355,48.514,63.334,48.514z"/><path fill="#472b29" d="M51,49.95c-2.286,0-4.524-0.127-6.654-0.376c-0.137-0.016-0.235-0.141-0.219-0.278	c0.016-0.137,0.135-0.23,0.278-0.219c2.11,0.248,4.329,0.374,6.595,0.374c3.811,0,7.483-0.356,10.621-1.03	c0.134-0.023,0.268,0.057,0.297,0.192s-0.057,0.268-0.191,0.297C58.555,49.59,54.846,49.95,51,49.95z"/><path fill="#472b29" d="M42.713,49.351c-0.013,0-0.025-0.001-0.039-0.003c-0.82-0.125-1.62-0.271-2.375-0.433	c-0.135-0.029-0.221-0.162-0.192-0.297c0.029-0.135,0.166-0.218,0.297-0.192c0.747,0.16,1.536,0.304,2.347,0.428	c0.136,0.021,0.23,0.148,0.209,0.285C42.941,49.262,42.834,49.351,42.713,49.351z"/><path fill="#472b29" d="M38.699,48.523c-0.021,0-0.043-0.003-0.065-0.008c-0.501-0.135-0.987-0.28-1.446-0.431	c-0.131-0.043-0.202-0.185-0.159-0.316c0.043-0.131,0.183-0.203,0.316-0.159c0.449,0.148,0.926,0.291,1.418,0.422	c0.133,0.036,0.212,0.173,0.177,0.307C38.911,48.449,38.81,48.523,38.699,48.523z"/><path fill="#472b29" d="M51,36.4c8.602,0,15.6,6.998,15.6,15.6S59.602,67.6,51,67.6S35.4,60.602,35.4,52S42.398,36.4,51,36.4 M51,35c-9.389,0-17,7.611-17,17s7.611,17,17,17s17-7.611,17-17S60.389,35,51,35L51,35z"/><rect width="12" height="1.4" x="35" y="51.6" fill="#472b29"/><rect width="12" height="1.4" x="55" y="51.6" fill="#472b29"/><circle cx="51" cy="52" r="4" fill="#ededeb"/><path fill="#472b29" d="M51,48.4c1.985,0,3.6,1.615,3.6,3.6s-1.615,3.6-3.6,3.6s-3.6-1.615-3.6-3.6S49.015,48.4,51,48.4 M51,47c-2.761,0-5,2.239-5,5s2.239,5,5,5s5-2.239,5-5S53.761,47,51,47L51,47z"/><path fill="#472b29" d="M51,65.75c-1.61,0-3.187-0.275-4.688-0.819c-0.13-0.047-0.197-0.19-0.15-0.32	c0.046-0.13,0.192-0.195,0.32-0.15c3.603,1.307,7.773,0.952,11.104-0.96c0.118-0.068,0.272-0.027,0.341,0.093	c0.068,0.119,0.027,0.272-0.093,0.341C55.765,65.122,53.401,65.75,51,65.75z"/><path fill="#472b29" d="M55.604,39.555c-0.028,0-0.057-0.005-0.085-0.015c-1.052-0.381-2.151-0.627-3.269-0.732	c-0.138-0.013-0.238-0.135-0.226-0.272c0.014-0.137,0.134-0.24,0.272-0.226c1.159,0.108,2.3,0.364,3.392,0.76	c0.13,0.047,0.197,0.19,0.15,0.32C55.802,39.492,55.706,39.555,55.604,39.555z"/><path fill="#472b29" d="M44.29,40.533c-0.086,0-0.17-0.045-0.217-0.125c-0.069-0.12-0.027-0.272,0.092-0.341	c1.711-0.982,3.575-1.573,5.539-1.756c0.146-0.007,0.259,0.088,0.272,0.226c0.013,0.138-0.088,0.259-0.226,0.272	c-1.893,0.177-3.688,0.746-5.337,1.692C44.375,40.522,44.332,40.533,44.29,40.533z"/><path fill="#472b29" d="M59.273,62.919c-0.074,0-0.148-0.033-0.197-0.097c-0.085-0.109-0.065-0.266,0.044-0.351	c1.168-0.908,2.169-1.994,2.977-3.229c0.075-0.115,0.232-0.148,0.346-0.072c0.115,0.075,0.148,0.23,0.072,0.346	c-0.837,1.281-1.876,2.408-3.088,3.35C59.381,62.901,59.327,62.919,59.273,62.919z"/><path fill="#472b29" d="M63.301,57.82c-0.035,0-0.07-0.007-0.104-0.022c-0.126-0.057-0.182-0.205-0.124-0.331	c0.32-0.704,0.58-1.446,0.772-2.206c0.033-0.134,0.172-0.218,0.304-0.181c0.134,0.034,0.215,0.17,0.181,0.304	c-0.199,0.788-0.47,1.559-0.802,2.29C63.486,57.766,63.396,57.82,63.301,57.82z"/></svg>